<?xml version="1.0" encoding="utf-8"?>
<!-- Generator: Adobe Illustrator 22.1.0, SVG Export Plug-In . SVG Version: 6.00 Build 0)  -->
<svg version="1.1" id="Layer_1" xmlns="http://www.w3.org/2000/svg" xmlns:xlink="http://www.w3.org/1999/xlink" x="0px" y="0px"
	 viewBox="0 0 91.8 112.8" style="enable-background:new 0 0 91.8 112.8;" xml:space="preserve">
<style type="text/css">
	.st0{fill:url(#SVGID_1_);}
	.st1{fill:url(#SVGID_2_);}
	.st2{fill:url(#SVGID_3_);}
</style>
<g>
	
		<linearGradient id="SVGID_1_" gradientUnits="userSpaceOnUse" x1="27.1839" y1="627.5138" x2="85.1474" y2="637.7343" gradientTransform="matrix(1 0 0 1 0 -614)">
		<stop  offset="5.000000e-02" style="stop-color:#82BC41"/>
		<stop  offset="0.3222" style="stop-color:#BFD839"/>
		<stop  offset="0.5" style="stop-color:#E3E935"/>
		<stop  offset="0.6516" style="stop-color:#C6DB39"/>
		<stop  offset="0.95" style="stop-color:#82BC41"/>
	</linearGradient>
	<path class="st0" d="M81.5,39.3C85.4,16,53.2,12.7,25.6,22.5c0.5-3.1,4.6-11.7,5.1-12.4C55.5-8.3,94.4,9.1,81.5,39.3z"/>
	
		<linearGradient id="SVGID_2_" gradientUnits="userSpaceOnUse" x1="49.9088" y1="713.1879" x2="88.0656" y2="631.3605" gradientTransform="matrix(1 0 0 1 0 -614)">
		<stop  offset="0.13" style="stop-color:#82BC41"/>
		<stop  offset="0.8778" style="stop-color:#E3E935"/>
	</linearGradient>
	<path class="st1" d="M78.5,12.9c17.1,17.7,11.6,40.6-1.8,52.7c-10.8,9.8,1.5,25.8-7,34.7c-0.1,0.1-1.4,0.9-2,1.3
		c-12.8,3.9-28.7-7.7-28.7-14c0-31.3,23.6-30.8,36-39.4C83.9,42.1,85.3,27.2,78.5,12.9z"/>
	
		<linearGradient id="SVGID_3_" gradientUnits="userSpaceOnUse" x1="46.8186" y1="725.9277" x2="12.1655" y2="630.7188" gradientTransform="matrix(1 0 0 1 0 -614)">
		<stop  offset="0" style="stop-color:#E3E935"/>
		<stop  offset="1.628352e-02" style="stop-color:#DCE636"/>
		<stop  offset="0.109" style="stop-color:#BCD73A"/>
		<stop  offset="0.2048" style="stop-color:#A2CB3D"/>
		<stop  offset="0.3038" style="stop-color:#90C33F"/>
		<stop  offset="0.4078" style="stop-color:#86BE41"/>
		<stop  offset="0.5252" style="stop-color:#82BC41"/>
		<stop  offset="0.6142" style="stop-color:#87BE40"/>
		<stop  offset="0.7142" style="stop-color:#94C43F"/>
		<stop  offset="0.8194" style="stop-color:#ABCF3C"/>
		<stop  offset="0.9275" style="stop-color:#CADD38"/>
		<stop  offset="1" style="stop-color:#E3E935"/>
	</linearGradient>
	<path class="st2" d="M30.9,9.9C19.5,18.7,6.3,32.2,3.6,45.8c-2.9,14.8,3.1,44.7,21.1,58.8c12.1,9.5,33.9,7.2,45.2-4.4
		c-16.8,8.6-43.6-16.7-46.5-47.1C20.8,25.5,30.9,9.9,30.9,9.9z"/>
</g>
</svg>
