<?xml version="1.0" standalone="no"?>
<!DOCTYPE svg PUBLIC "-//W3C//DTD SVG 20010904//EN"
 "http://www.w3.org/TR/2001/REC-SVG-20010904/DTD/svg10.dtd">
<svg version="1.0" xmlns="http://www.w3.org/2000/svg"
 width="904.000000pt" height="904.000000pt" viewBox="0 0 904.000000 904.000000"
 preserveAspectRatio="xMidYMid meet">
<metadata>
Created by potrace 1.11, written by Peter Selinger 2001-2013
</metadata>
<g transform="translate(0.000000,904.000000) scale(0.100000,-0.100000)"
fill="#000000" stroke="none">
<path d="M5097 8834 c-1 -1 -63 -4 -137 -8 -74 -3 -152 -8 -172 -11 -114 -15
-176 -24 -208 -31 -14 -3 -38 -7 -55 -10 -16 -2 -46 -9 -65 -14 -33 -9 -82
-20 -106 -25 -78 -17 -346 -110 -464 -162 -57 -25 -242 -118 -280 -141 -19
-12 -48 -29 -65 -38 -52 -29 -180 -116 -183 -125 -2 -5 -9 -9 -15 -9 -10 0
-34 -17 -112 -78 -34 -26 -171 -137 -175 -142 -5 -5 -115 -97 -138 -115 -7 -5
-32 -28 -56 -50 -25 -22 -73 -65 -108 -96 -333 -296 -693 -682 -931 -999 -39
-52 -75 -96 -79 -98 -4 -2 -8 -8 -8 -13 0 -7 -56 -90 -117 -175 -12 -15 -24
-36 -108 -177 -68 -113 -171 -311 -219 -419 -61 -138 -144 -398 -160 -503 -4
-22 -11 -56 -16 -75 -4 -19 -11 -60 -15 -91 -3 -31 -8 -66 -10 -78 -14 -72
-29 -621 -18 -643 2 -4 6 -49 8 -100 5 -92 12 -176 21 -253 3 -22 7 -58 10
-80 10 -98 17 -150 30 -225 8 -40 10 -53 25 -135 6 -33 13 -71 15 -85 6 -31 9
-46 30 -140 9 -41 18 -82 19 -90 2 -8 4 -15 5 -15 1 0 3 -11 6 -25 2 -14 8
-41 14 -60 5 -19 26 -93 45 -165 64 -233 166 -524 277 -785 45 -107 188 -396
237 -480 18 -30 37 -67 44 -83 6 -15 15 -27 19 -27 4 0 8 -4 8 -10 0 -5 25
-47 55 -94 30 -46 55 -89 55 -94 0 -6 3 -12 8 -14 4 -2 22 -25 41 -53 58 -84
145 -200 153 -203 4 -2 8 -10 8 -17 0 -7 3 -15 8 -17 4 -1 39 -41 79 -88 162
-192 327 -356 480 -477 103 -82 160 -123 171 -123 6 0 12 -4 12 -8 0 -5 10
-14 23 -20 12 -6 45 -25 72 -41 75 -44 213 -111 230 -111 8 0 15 -4 15 -8 0
-4 17 -13 38 -19 20 -6 60 -20 87 -30 51 -20 255 -78 310 -88 121 -23 197 -36
240 -39 28 -3 84 -8 125 -12 147 -14 502 -7 600 11 14 2 45 7 70 9 25 3 63 8
85 12 22 3 48 7 58 7 9 1 17 4 17 7 0 3 12 6 28 6 15 1 38 5 52 9 14 3 34 8
45 10 11 2 47 11 80 19 33 9 67 18 75 20 43 11 196 60 210 67 14 7 109 43 120
45 8 1 102 43 154 70 28 13 56 24 63 24 7 0 13 4 13 9 0 5 8 11 18 14 19 7
121 62 167 92 104 66 172 111 181 120 7 5 24 19 40 30 15 11 38 29 50 40 12
11 35 29 50 40 37 27 162 153 197 197 74 96 133 209 157 298 7 25 15 52 18 60
3 8 5 18 4 21 -1 4 3 21 8 37 28 99 31 490 5 652 -2 14 -7 59 -11 100 -3 41
-8 89 -10 105 -2 17 -6 53 -8 80 -3 28 -8 88 -13 135 -15 167 -8 512 13 600 4
14 8 38 10 53 2 15 9 38 16 50 6 12 10 22 8 22 -6 0 35 120 42 123 5 2 8 10 8
18 0 12 27 66 76 151 11 18 22 33 27 33 4 0 7 4 7 10 0 16 36 56 210 230 91
91 183 188 205 215 22 28 43 52 47 55 6 5 128 165 171 225 10 13 17 28 16 31
0 4 3 10 9 13 12 8 132 207 132 220 0 5 4 11 9 13 5 2 11 10 13 18 2 8 13 30
25 49 12 19 20 38 17 43 -3 4 0 8 5 8 6 0 11 4 11 9 0 5 15 42 34 83 38 82
101 247 112 293 4 17 10 35 15 40 4 6 10 22 12 35 3 14 11 45 18 70 7 25 13
50 15 55 16 68 32 148 39 190 3 17 8 44 12 60 3 17 7 41 8 55 2 14 7 59 11
100 10 87 10 502 1 575 -4 28 -10 66 -13 85 -4 19 -8 49 -9 65 -10 112 -98
419 -173 600 -106 259 -323 610 -487 791 -5 6 -31 35 -56 65 -26 30 -60 68
-75 85 -144 154 -194 203 -294 284 -30 25 -57 47 -60 50 -3 4 -22 16 -43 29
-21 13 -44 30 -52 38 -8 8 -15 12 -15 8 0 -3 -10 3 -22 15 -12 11 -27 20 -34
20 -7 0 -14 4 -16 9 -4 12 -237 133 -328 171 -41 17 -83 35 -92 40 -10 6 -24
10 -31 10 -8 0 -28 7 -45 15 -17 9 -55 22 -84 31 -94 26 -242 65 -263 70 -11
2 -31 6 -45 9 -14 3 -41 8 -60 11 -19 2 -46 7 -60 9 -14 3 -43 7 -65 10 -22 3
-53 8 -70 10 -74 10 -379 25 -388 19z m283 -1189 c80 -3 166 -7 193 -9 67 -6
148 -15 177 -20 14 -3 45 -7 70 -10 63 -9 174 -28 240 -43 14 -4 34 -8 44 -10
73 -14 294 -85 391 -126 105 -44 219 -100 223 -109 2 -5 8 -8 14 -8 15 0 156
-97 223 -153 147 -124 255 -261 324 -412 18 -38 37 -79 42 -90 8 -19 31 -99
49 -175 11 -44 27 -176 31 -245 2 -27 -11 -235 -16 -270 -12 -76 -77 -251
-100 -267 -5 -4 -7 -8 -3 -8 7 0 -67 -136 -95 -174 -86 -121 -189 -229 -292
-307 -58 -44 -228 -151 -290 -182 -79 -39 -171 -84 -180 -87 -5 -2 -40 -19
-77 -37 -37 -18 -70 -33 -72 -33 -3 0 -33 -13 -68 -28 -92 -42 -152 -67 -158
-67 -3 -1 -27 -11 -54 -23 -27 -12 -50 -22 -52 -22 -2 0 -29 -12 -61 -26 -32
-14 -67 -29 -78 -33 -11 -5 -52 -23 -91 -40 -39 -17 -76 -31 -82 -31 -7 0 -12
-4 -12 -10 0 -5 -5 -10 -10 -10 -21 0 -267 -118 -276 -131 -3 -5 -14 -9 -24
-9 -10 0 -20 -3 -22 -7 -1 -5 -28 -21 -58 -37 -109 -59 -373 -233 -400 -265
-3 -3 -27 -24 -55 -46 -71 -57 -207 -196 -273 -279 -31 -39 -59 -73 -62 -76
-15 -15 -50 -71 -50 -80 0 -5 -4 -10 -8 -10 -11 0 -112 -176 -155 -270 -65
-141 -142 -359 -148 -415 0 -2 -9 -34 -19 -70 -10 -36 -19 -68 -18 -70 0 -6
-12 -78 -18 -110 -12 -59 -16 -84 -19 -125 -2 -25 -6 -56 -9 -69 -5 -21 -8
-54 -21 -216 -7 -95 -7 -320 1 -350 7 -26 3 -24 -41 25 -52 58 -55 62 -107
126 -18 23 -44 54 -56 70 -13 16 -35 46 -49 67 -14 20 -30 37 -35 37 -5 0 -7
4 -4 9 4 5 3 11 -2 13 -4 1 -23 25 -42 53 -19 27 -41 56 -47 63 -7 7 -13 17
-13 22 0 5 -6 15 -12 22 -24 25 -58 77 -58 88 0 5 -4 10 -10 10 -5 0 -10 4
-10 10 0 5 -17 36 -37 67 -21 32 -43 67 -49 78 -6 11 -24 43 -39 70 -125 219
-302 592 -350 740 -7 22 -27 79 -44 127 -52 143 -132 416 -147 498 -3 14 -10
45 -16 70 -6 25 -12 54 -14 65 -2 11 -8 40 -13 65 -8 42 -12 61 -27 160 -8 53
-12 75 -14 75 0 0 -3 23 -6 50 -2 28 -6 66 -8 85 -15 117 -23 209 -33 380 -8
143 -8 702 1 825 9 145 16 224 21 275 14 124 16 148 20 180 5 51 35 243 40
260 2 8 6 31 9 50 3 19 8 46 11 60 3 14 7 39 10 55 3 17 8 44 12 60 4 17 7 35
8 40 1 6 4 21 8 35 20 76 61 256 59 263 -1 4 3 7 9 7 5 0 7 5 4 10 -13 21 17
38 133 75 64 20 124 40 132 43 8 3 20 6 25 8 6 2 57 17 115 34 58 17 112 33
120 35 8 1 41 10 72 20 31 9 70 18 85 21 15 3 55 12 88 21 33 8 69 17 80 19
11 2 45 9 75 15 30 7 64 13 75 15 11 1 20 3 20 4 0 2 20 6 65 14 19 4 60 11
90 17 66 12 73 13 180 28 47 7 97 14 113 17 69 11 86 13 142 18 33 4 85 9 115
12 118 11 192 15 380 21 107 3 197 7 198 8 2 2 9 2 15 0 7 -2 77 -7 157 -10z"/>
</g>
</svg>
